# AST/ASF file generated using VICON BodyLanguage
# -----------------------------------------------
:version 1.10
:name VICON
:units
  mass 1.0
  length 0.45
  angle deg
:documentation
   .ast/.asf automatically generated from VICON data using
   VICON BodyBuilder and BodyLanguage model FoxedUp or BRILLIANT.MOD
:root
   order TX TY TZ RX RY RZ
   axis XYZ
   position 0 0 0  
   orientation 0 -0 0 
:bonedata
  begin
     id 1 
     name lhipjoint
     direction 0.432694 -0.693742 0.575759 
     length 2.19277 
     axis 0 -0 0  XYZ
  end
  begin
     id 2 
     name lfemur
     direction 0.34202 -0.939693 0  
     length 6.69022  
     axis 0 -0 20  XYZ
    dof rx ry rz
    limits (-160.0 20.0)
           (-70.0 70.0)
           (-60.0 70.0)
  end
  begin
     id 3 
     name ltibia
     direction 0.34202 -0.939693 0   
     length 6.50337   
     axis 0 -0 20   XYZ
    dof rx
    limits (-10.0 170.0)
  end
  begin
     id 4 
     name lfoot
     direction 0.158999 -0.435969 0.885805   
     length 2.70564   
     axis -90 -1.13533e-015 20   XYZ
    dof rx rz
    limits (-45.0 90.0)
           (-70.0 20.0)
  end
  begin
     id 5 
     name ltoes
     direction -0.00592919 0.00964381 0.999936   
     length 1.29929   
     axis -90 -1.13533e-015 20   XYZ
    dof rx
    limits (-90.0 20.0)
  end
  begin
     id 6 
     name rhipjoint
     direction -0.414359 -0.700339 0.581234   
     length 2.17212  
     axis 0 -0 0  XYZ 
  end
  begin
     id 7 
     name rfemur
     direction -0.34202 -0.939693 0   
     length 7.17659   
     axis 0 -0 -20   XYZ
    dof rx ry rz
    limits (-160.0 20.0)
           (-70.0 70.0)
           (-70.0 60.0)
  end
  begin
     id 8 
     name rtibia
     direction -0.34202 -0.939693 0   
     length 6.36669   
     axis 0 -0 -20   XYZ
    dof rx
    limits (-10.0 170.0)
 end
 begin
     id 9 
     name rfoot
     direction -0.137064 -0.37658 0.916188   
     length 2.22351  
     axis -90 1.13533e-015 -20   XYZ
    dof rx rz
    limits (-45.0 90.0)
           (-20.0 70.0)
  end
  begin
     id 10 
     name rtoes
     direction -0.000784077 -0.00289101 0.999996   
     length 1.09522   
     axis -90 1.13533e-015 -20   XYZ
    dof rx
    limits (-90.0 20.0)
  end
  begin
     id 11 
     name lowerback
     direction -0.0176242 0.984912 -0.172157   
     length 1.65301   
     axis 0 -0 0   XYZ
    dof rx ry rz
    limits (-20.0 45.0)
           (-30.0 30.0)
           (-30.0 30.0)
  end
  begin
     id 12 
     name upperback
     direction -0.00218128 0.998776 -0.0494072   
     length 1.67776   
     axis 0 -0 0   XYZ
    dof rx ry rz
    limits (-20.0 45.0)
           (-30.0 30.0)
           (-30.0 30.0)
  end
  begin
     id 13 
     name thorax
     direction 0.00544186 0.999658 0.0255711   
     length 1.72293   
     axis 0 -0 0   XYZ
    dof rx ry rz
    limits (-20.0 45.0)
           (-30.0 30.0)
           (-30.0 30.0)
  end
  begin
     id 14 
     name lowerneck
     direction -0.105325 0.983841 0.144785   
     length 2.14226   
     axis 0 -0 0   XYZ
    dof rx ry rz
    limits (-20.0 45.0)
           (-30.0 30.0)
           (-30.0 30.0)
  end
  begin
     id 15 
     name upperneck
     direction 0.0547957 0.988053 -0.144041   
     length 2.17508   
     axis 0 -0 0   XYZ
    dof rx ry rz
    limits (-20.0 45.0)
           (-30.0 30.0)
           (-30.0 30.0)
  end
  begin
     id 16
     name head
     direction 0.0247488 0.997534 -0.0656813  
     length 2.20048  
     axis 0 -0 0   XYZ
    dof rx ry rz
    limits (-20.0 45.0)
           (-30.0 30.0)
           (-30.0 30.0)
  end
  begin
     id 17 
     name lclavicle
     direction 0.820559 0.567247 -0.0701026  
     length 4.09615  
     axis 0 -0 0   XYZ
    dof ry rz
    limits (-20.0 10.0)
           (0.0 20.0)
  end
  begin
     id 18 
     name lhumerus
     direction 0.999977 -0.0067566 -9.96392e-005   
     length 4.59333   
     axis -180 -30 -90   XYZ
    dof rx ry rz
    limits (-60.0 90.0)
           (-90.0 90.0)
           (-90.0 90.0)
  end
  begin
     id 19
     name lradius
     direction 1 -4.48982e-011 -2.53425e-027   
     length 2.81151   
     axis -180 -30 -90   XYZ
    dof rx
    limits (-10.0 170.0)
  end
  begin
     id 20
     name lwrist
     direction 1 -4.48939e-011 -7.39254e-028   
     length 1.40576   
     axis 2.56395e-016 90 90   XYZ
    dof ry
    limits (-180.0 0.0)
 end
  begin
     id 21 
     name lhand
     direction 1 -4.48939e-011 -1.47851e-027   
     length 0.895651   
     axis 9.43423e-016 90 90   XYZ
    dof rx rz
    limits (-90.0 90.0)
           (-45.0 45.0)
  end
  begin
     id 22 
     name lfingers
     direction 1 -4.48978e-011 -2.95702e-027   
     length 0.722097   
     axis 1.88685e-015 90 90   XYZ
    dof rx
    limits (0.0 90.0)
  end
  begin
     id 23
     name lthumb
     direction 0.707107 -6.34931e-011 0.707107   
     length 1.03679   
     axis -90 45 -9.86935e-015   XYZ
    dof rx rz
    limits (-45.0 45.0)
           (-45.0 45.0)
  end
  begin
     id 24 
     name rclavicle
     direction -0.831414 0.553102 -0.0531864   
     length 4.24872  
     axis 0 -0 0   XYZ 
    dof ry rz
    limits (-10.0 20.0)
           (-20.0 0.0)
  end
  begin
     id 25 
     name rhumerus
     direction -0.999916 -0.000939607 0.0129331  
     length 4.74834   
     axis -180 30 90   XYZ
    dof rx ry rz
    limits (-90.0 60.0)
           (-90.0 90.0)
           (-90.0 90.0)
  end
  begin
     id 26 
     name rradius
     direction -1 -4.48956e-011 -1.31752e-027   
     length 2.79907   
     axis -180 30 90   XYZ
    dof rx
    limits (-10.0 170.0)
  end
  begin
     id 27 
     name rwrist
     direction -1 -4.4897e-011 -7.39254e-028   
     length 1.39954   
     axis 2.56395e-016 -90 -90   XYZ
    dof ry
    limits (-180.0 0.0)
  end
  begin
     id 28
     name rhand
     direction -0.999997 -0.00250697 0.000800838   
     length 0.953304   
     axis 9.43423e-016 -90 -90   XYZ
    dof rx rz
    limits (-90.0 90.0)
           (-45.0 45.0)
  end
  begin
     id 29
     name rfingers
     direction -1 -4.48954e-011 -2.95702e-027   
     length 0.763342   
     axis 1.88685e-015 -90 -90   XYZ
    dof rx
    limits (0.0 90.0)
  end
  begin
     id 30
     name rthumb
     direction -0.709701 -0.00217037 0.7045   
     length 1.10115   
     axis -90 -45 9.86935e-015   XYZ
    dof rx rz
    limits (-45.0 45.0)
           (-45.0 45.0)
  end
:hierarchy
  begin
    root lhipjoint rhipjoint lowerback
    lhipjoint lfemur
    lfemur ltibia
    ltibia lfoot
    lfoot ltoes
    rhipjoint rfemur
    rfemur rtibia
    rtibia rfoot
    rfoot rtoes
    lowerback upperback
    upperback thorax
    thorax lowerneck lclavicle rclavicle
    lowerneck upperneck
    upperneck head
    lclavicle lhumerus
    lhumerus lradius
    lradius lwrist
    lwrist lhand lthumb
    lhand lfingers
    rclavicle rhumerus
    rhumerus rradius
    rradius rwrist
    rwrist rhand rthumb
    rhand rfingers
  end

#!OML:ASF G:\ViconDB\ViconDB\414\test\team2\shane.ASF
:FULLY-SPECIFIED
:DEGREES
17
root -0.013018 14.8478 -36.7966 25.8722 -8.42396 -11.5674
lowerback 23.5857 3.93615 -3.91011
upperback 13.3419 3.9619 -5.27625
thorax 1.77006 1.89984 -4.34492
lowerneck -18.7409 -8.7883 -16.2429
upperneck 21.8047 -3.96487 -11.7943
head 10.5534 -4.40284 -2.25898
rclavicle 4.77083e-014 -9.78021e-014
rhumerus 60.182 28.5279 -53.4831
rradius 27.2465
rwrist 40.6679
rhand -32.8698 -17.2678
rfingers 7.12502
rthumb -6.08849 -47.1603
lclavicle 4.77083e-014 -9.78021e-014
lhumerus 34.4377 -24.1544 26.5706
lradius 25.3524
lwrist 7.25292
lhand -47.736 14.2297
lfingers 7.12502
lthumb -20.4147 43.1766
rfemur -17.4994 -17.9304 24.0107
rtibia 51.1397
rfoot -35.2848 -17.2864
rtoes -29.964
lfemur -80.2609 20.3181 -20.9802
ltibia 80.503
lfoot -35.5197 -3.87054
ltoes -13.3133
18
root -0.0146839 14.7565 -36.5728 26.5865 -7.6083 -11.8265
lowerback 23.645 4.08393 -4.19634
upperback 13.42 4.09551 -5.39366
thorax 1.83269 1.95691 -4.34384
lowerneck -18.5101 -8.8274 -16.2421
upperneck 21.9984 -4.12463 -11.4122
head 10.5852 -4.43431 -2.14056
rclavicle -2.70347e-014 -1.74931e-014
rhumerus 61.0154 28.0664 -53.2474
rradius 27.2839
rwrist 40.2001
rhand -33.5594 -18.1312
rfingers 7.12502
rthumb -6.75421 -48.0035
lclavicle -2.70347e-014 -1.74931e-014
lhumerus 35.7513 -24.0679 24.5601
lradius 25.8514
lwrist 7.94513
lhand -47.5963 13.8203
lfingers 7.12502
lthumb -20.2804 42.7815
rfemur -17.1964 -19.0854 24.374
rtibia 51.0172
rfoot -35.5555 -17.3498
rtoes -30.4589
lfemur -81.9671 19.3618 -21.3936
ltibia 81.5928
lfoot -34.9026 -2.76871
ltoes -13.1544
19
root -0.0210482 14.6588 -36.3325 27.3569 -6.79145 -12.2425
lowerback 23.6176 4.28249 -4.72717
upperback 13.5014 4.25672 -5.38806
thorax 1.91454 2.00567 -4.07145
lowerneck -18.5275 -8.7872 -16.136
upperneck 22.2034 -4.09579 -11.2522
head 10.6604 -4.40563 -2.10143
rclavicle -3.97569e-014 9.85972e-014
rhumerus 61.9044 27.4168 -53.0769
rradius 27.0259
rwrist 40.2473
rhand -34.5092 -17.8376
rfingers 7.12502
rthumb -7.67103 -47.6785
lclavicle -3.97569e-014 9.85972e-014
lhumerus 36.7562 -23.1464 23.954
lradius 25.5756
lwrist 6.80194
lhand -47.888 14.5687
lfingers 7.12502
lthumb -20.5608 43.4998
rfemur -16.7911 -19.8637 24.9333
rtibia 50.6047
rfoot -35.4335 -17.9432
rtoes -31.1617
lfemur -83.4578 18.501 -21.4642
ltibia 82.9395
lfoot -34.0336 -2.34036
ltoes -12.354
20
root -0.033803 14.5631 -36.0835 28.2375 -6.06827 -12.8063
lowerback 23.579 4.41842 -5.24686
upperback 13.5757 4.3376 -5.50815
thorax 2.00275 2.01955 -3.92578
lowerneck -18.5844 -8.70601 -16.3819
upperneck 22.2784 -4.05312 -10.555
head 10.712 -4.33306 -1.81136
rclavicle 1.27222e-014 1.66979e-014
rhumerus 62.6778 26.4833 -54.1902
rradius 26.4174
rwrist 42.8168
rhand -34.7838 -17.7726
rfingers 7.12502
rthumb -7.93608 -47.6036
lclavicle 1.27222e-014 1.66979e-014
lhumerus 37.8556 -23.2536 20.9143
lradius 26.4114
lwrist 9.4916
lhand -47.8601 14.8015
lfingers 7.12502
lthumb -20.534 43.7355
rfemur -15.9601 -19.1916 25.2608
rtibia 49.9972
rfoot -37.3248 -14.2833
rtoes -27.892
lfemur -84.755 17.8644 -21.3264
ltibia 84.3084
lfoot -32.9345 -2.64027
ltoes -11.4319
21
root -0.0430402 14.48 -35.8183 29.161 -5.33474 -13.5257
lowerback 23.3838 4.75807 -6.00325
upperback 13.6654 4.65105 -5.45417
thorax 2.15885 2.12303 -3.49821
lowerneck -18.4881 -8.60202 -16.1255
upperneck 22.2425 -4.08144 -10.2718
head 10.6666 -4.28572 -1.73912
rclavicle 6.20208e-014 -2.62396e-014
rhumerus 63.4873 25.3784 -54.342
rradius 26.0592
rwrist 44.3323
rhand -34.7942 -17.2244
rfingers 7.12502
rthumb -7.94614 -47.0551
lclavicle 6.20208e-014 -2.62396e-014
lhumerus 38.8747 -22.4057 19.7613
lradius 26.3681
lwrist 9.72454
lhand -47.9595 15.6478
lfingers 7.12502
lthumb -20.6295 44.5715
rfemur -15.7547 -20.2548 26.3579
rtibia 49.1078
rfoot -35.1129 -17.9903
rtoes -31.4494
lfemur -85.598 17.2141 -20.9875
ltibia 85.5976
lfoot -31.6561 -2.85044
ltoes -10.817
22
root -0.0512655 14.4058 -35.5474 30.2392 -4.39882 -14.4282
lowerback 23.4001 4.87059 -6.45256
upperback 13.6249 4.70402 -5.51105
thorax 2.08556 2.12455 -3.32551
lowerneck -18.6832 -8.46718 -16.039
upperneck 22.3985 -3.96794 -9.82073
head 10.7553 -4.19147 -1.58286
rclavicle 1.90833e-014 -1.03368e-013
rhumerus 64.5923 24.718 -54.1412
rradius 25.9532
rwrist 44.297
rhand -34.7016 -16.8192
rfingers 7.12502
rthumb -7.85675 -46.6532
lclavicle 1.90833e-014 -1.03368e-013
lhumerus 40.0111 -22.6175 16.2563
lradius 27.0622
lwrist 12.2156
lhand -48.1092 17.2737
lfingers 7.12502
lthumb -20.7733 46.1818
rfemur -15.2372 -19.9902 27.4793
rtibia 48.0142
rfoot -34.4594 -18.0766
rtoes -31.7577
lfemur -86.2984 16.497 -20.1627
ltibia 86.7439
lfoot -30.0664 -4.92833
ltoes -8.34981
23
root -0.0539766 14.344 -35.2608 31.5663 -3.52775 -15.4135
lowerback 23.4001 4.87059 -6.45256
upperback 13.6249 4.70402 -5.51105
thorax 2.08556 2.12455 -3.32551
lowerneck -18.6832 -8.46718 -16.039
upperneck 22.3985 -3.96794 -9.82073
head 10.7553 -4.19147 -1.58286
rclavicle 1.90833e-014 -1.03368e-013
rhumerus 64.5923 24.718 -54.1412
rradius 25.9532
rwrist 44.297
rhand -34.7016 -16.8192
rfingers 7.12502
rthumb -7.85675 -46.6532
lclavicle 1.90833e-014 -1.03368e-013
lhumerus 40.0111 -22.6175 16.2563
lradius 27.0622
lwrist 12.2156
lhand -48.1092 17.2737
lfingers 7.12502
lthumb -20.7733 46.1818
rfemur -14.9316 -19.8867 28.6638
rtibia 46.6168
rfoot -33.3132 -17.8689
rtoes -32.9008
lfemur -86.852 15.7636 -19.2798
ltibia 87.6448
lfoot -30.4171 -5.96644
ltoes -1.82323
24
root -0.0591831 14.3149 -34.9678 32.8558 -2.32789 -16.2427
lowerback 23.4001 4.87059 -6.45256
upperback 13.6249 4.70402 -5.51105
thorax 2.08556 2.12455 -3.32551
lowerneck -18.6832 -8.46718 -16.039
upperneck 22.3985 -3.96794 -9.82073
head 10.7553 -4.19147 -1.58286
rclavicle 1.90833e-014 -1.03368e-013
rhumerus 64.5923 24.718 -54.1412
rradius 25.9532
rwrist 44.297
rhand -34.7016 -16.8192
rfingers 7.12502
rthumb -7.85675 -46.6532
lclavicle 1.90833e-014 -1.03368e-013
lhumerus 40.0111 -22.6175 16.2563
lradius 27.0622
lwrist 12.2156
lhand -48.1092 17.2737
lfingers 7.12502
lthumb -20.7733 46.1818
rfemur -14.4984 -19.8037 29.872
rtibia 44.8997
rfoot -31.8659 -17.1718
rtoes -33.6897
lfemur -86.7747 14.7262 -17.8655
ltibia 88.0206
lfoot -34.2692 -2.64128
ltoes -5.45151
25
root -0.0400979 14.288 -34.6437 34.0772 -1.29045 -17.2599
lowerback 23.4001 4.87059 -6.45256
upperback 13.6249 4.70402 -5.51105
thorax 2.08556 2.12455 -3.32551
lowerneck -18.6832 -8.46718 -16.039
upperneck 22.3985 -3.96794 -9.82073
head 10.7553 -4.19147 -1.58286
rclavicle 1.90833e-014 -1.03368e-013
rhumerus 64.5923 24.718 -54.1412
rradius 25.9532
rwrist 44.297
rhand -34.7016 -16.8192
rfingers 7.12502
rthumb -7.85675 -46.6532
lclavicle 1.90833e-014 -1.03368e-013
lhumerus 40.0111 -22.6175 16.2563
lradius 27.0622
lwrist 12.2156
lhand -48.1092 17.2737
lfingers 7.12502
lthumb -20.7733 46.1818
rfemur -13.6532 -19.8366 30.8145
rtibia 42.5762
rfoot -29.7005 -15.6489
rtoes -34.5702
lfemur -86.0241 13.4075 -15.5421
ltibia 88.1083
lfoot -36.4761 -1.14639
ltoes -2.7744
26
root -0.0356701 14.2948 -34.3211 35.4713 0.0986357 -18.1674
lowerback 23.1656 5.32533 -8.82438
upperback 13.3952 4.85113 -5.65978
thorax 1.82227 2.06695 -2.20637
lowerneck -19.2084 -8.35826 -15.7215
upperneck 23.1506 -4.26711 -7.60518
head 11.135 -4.09769 -0.909041
rclavicle 7.31528e-014 4.09496e-014
rhumerus 69.0095 21.4417 -52.1206
rradius 25.864
rwrist 42.0092
rhand -33.4307 -15.2593
rfingers 7.12502
rthumb -6.62999 -45.1355
lclavicle 7.31528e-014 4.09496e-014
lhumerus 42.4463 -18.0619 10.1575
lradius 27.9934
lwrist 16.6241
lhand -49.121 20.4832
lfingers 7.12502
lthumb -21.7452 49.2818
rfemur -13.0417 -19.9362 31.9948
rtibia 39.8773
rfoot -27.4289 -13.3209
rtoes -35.7267
lfemur -85.3294 11.7152 -12.6761
ltibia 87.7124
lfoot -38.7242 0.863693
ltoes -1.49032
27
root -0.0136712 14.3341 -33.9493 35.8444 -0.903948 -19.549
lowerback 23.999 6.725 -11.2837
upperback 13.5254 5.95229 -5.84924
thorax 1.43104 2.46205 -1.41299
lowerneck -19.9475 -8.51531 -15.502
upperneck 23.5216 -4.47614 -7.13227
head 11.4154 -4.14871 -0.843578
rclavicle -1.27222e-014 -5.64548e-014
rhumerus 70.5836 20.0379 -50.4562
rradius 25.8774
rwrist 41.2112
rhand -33.3107 -15.7595
rfingers 7.12502
rthumb -6.51412 -45.6394
lclavicle -1.27222e-014 -5.64548e-014
lhumerus 43.3692 -15.8995 9.79798
lradius 28.0771
lwrist 17.2365
lhand -49.4022 21.8181
lfingers 7.12502
lthumb -22.0153 50.5851
rfemur -10.4232 -18.0768 31.3307
rtibia 36.8157
rfoot -25.2696 -10.0255
rtoes -36.6686
lfemur -82.65 11.9048 -10.5002
ltibia 87.671
lfoot -41.4978 2.7491
ltoes -1.84442
28
root 0.0316224 14.3528 -33.6185 37.3966 1.15683 -20.212
lowerback 24.4654 6.11392 -10.8622
upperback 13.5209 5.21027 -6.1353
thorax 1.29369 2.14759 -1.8059
lowerneck -20.315 -8.56057 -15.5674
upperneck 23.5407 -4.66588 -6.29709
head 11.507 -4.146 -0.571077
rclavicle -6.67916e-014 -2.78299e-015
rhumerus 72.0976 18.6876 -50.2217
rradius 25.603
rwrist 42.1394
rhand -33.6682 -15.5761
rfingers 7.12502
rthumb -6.85927 -45.4449
lclavicle -6.67916e-014 -2.78299e-015
lhumerus 43.6761 -14.0655 8.5035
lradius 28.5091
lwrist 18.8103
lhand -50.0843 22.7213
lfingers 7.12502
lthumb -22.67 51.4098
rfemur -10.0115 -19.2874 32.2841
rtibia 33.7409
rfoot -22.9391 -5.61364
rtoes -37.4219
lfemur -83.331 10.1452 -8.73547
ltibia 87.8324
lfoot -42.2098 4.87445
ltoes -2.83957
